<?xml version="1.0" encoding="utf-8"?>
<!-- Generator: Adobe Illustrator 19.0.1, SVG Export Plug-In . SVG Version: 6.00 Build 0)  -->
<!DOCTYPE svg PUBLIC "-//W3C//DTD SVG 1.1//EN" "http://www.w3.org/Graphics/SVG/1.1/DTD/svg11.dtd">
<svg version="1.1" id="Layer_1" xmlns="http://www.w3.org/2000/svg" xmlns:xlink="http://www.w3.org/1999/xlink" x="0px" y="0px"
	 viewBox="-649 88 100 125" style="enable-background:new -649 88 100 125;" xml:space="preserve">
<style type="text/css">
	.st0{fill:#C6DD9B;}
</style>
<path class="st0" d="M-599,187.6c-27.3,0-49.5-22.2-49.5-49.5c0-18.9,11.1-36.5,28.2-44.7c1.2-0.6,2.6-0.6,3.8,0
	c1.2,0.6,2.1,1.7,2.3,3.1c0.4,2.1,2.1,7.1,8.6,7.1c4.5,0,6.7-2.5,7.7-4.5c0.9-1.8,3-2.8,5-2.3c2,0.5,3.4,2.3,3.3,4.4
	c-0.1,3.3,0.8,6.3,2.5,8c2.2,2.2,5.9,2.4,11,0.6c1.8-0.7,3.9,0,5,1.6c1.1,1.6,1.1,3.7-0.1,5.3c-1.9,2.4-2.1,6-0.5,9.3
	c1.9,3.9,5.8,6.3,10.3,6.3c2,0,3.7-0.4,5.3-1.3c1.3-0.7,2.9-0.7,4.2,0c1.3,0.7,2.1,2,2.3,3.5l0,0.5c0.1,1,0.1,2,0.1,3
	C-549.4,165.4-571.6,187.6-599,187.6z M-620.7,103.7c-11.7,7.4-19,20.5-19,34.4c0,22.5,18.3,40.8,40.8,40.8
	c21.6,0,39.3-16.9,40.7-38.1c-1,0.1-2,0.2-3.1,0.2c-7.8,0-14.8-4.3-18.2-11.2c-1.6-3.3-2.2-6.7-1.9-10c-0.2,0-0.5,0-0.7,0h0
	c-4.5,0-8.3-1.5-11.2-4.4c-1.4-1.4-2.5-3.2-3.3-5.1c-2.6,1.5-5.6,2.2-8.9,2.2C-612.2,112.4-617.8,109.1-620.7,103.7z"/>
<path class="st0" d="M-553.1,98c0,2-1.6,3.6-3.6,3.6c-2,0-3.6-1.6-3.6-3.6c0-2,1.6-3.6,3.6-3.6C-554.7,94.4-553.1,96-553.1,98z"/>
<circle class="st0" cx="-620.3" cy="127.4" r="6.2"/>
<circle class="st0" cx="-615.8" cy="151.7" r="6.2"/>
<circle class="st0" cx="-593.1" cy="159.4" r="6.2"/>
<circle class="st0" cx="-595.9" cy="134.7" r="6.2"/>
<path class="st0" d="M-570.7,95.6c0,3.1-2.6,5.7-5.7,5.7c-3.1,0-5.7-2.6-5.7-5.7c0-3.2,2.6-5.7,5.7-5.7
	C-573.2,89.9-570.7,92.5-570.7,95.6z"/>
<circle class="st0" cx="-556" cy="117.3" r="4"/>
</svg>
